<mxfile host="app.diagrams.net" modified="2022-08-10T14:02:40.407Z" agent="5.0 (Windows NT 10.0; Win64; x64) AppleWebKit/537.36 (KHTML, like Gecko) Chrome/104.0.0.0 Safari/537.36" etag="m9H9oCHhxA4r9WwZLux1" version="20.2.3" type="github">
  <diagram id="3ycZvg8SD_pY-ydtEEm7" name="Page-1">
    <mxGraphModel dx="1673" dy="934" grid="0" gridSize="10" guides="1" tooltips="1" connect="1" arrows="1" fold="1" page="1" pageScale="1" pageWidth="827" pageHeight="1169" math="0" shadow="0">
      <root>
        <mxCell id="0" />
        <mxCell id="1" parent="0" />
        <mxCell id="iKNJWcs5wsSq8HuUoyNJ-114" style="edgeStyle=none;rounded=0;orthogonalLoop=1;jettySize=auto;html=1;fontSize=15;fontColor=#000000;strokeColor=#000000;endArrow=none;endFill=0;dashed=1;" edge="1" parent="1" target="iKNJWcs5wsSq8HuUoyNJ-51">
          <mxGeometry relative="1" as="geometry">
            <mxPoint x="119.32352941176464" y="752" as="sourcePoint" />
            <Array as="points">
              <mxPoint x="238" y="752" />
            </Array>
          </mxGeometry>
        </mxCell>
        <mxCell id="iKNJWcs5wsSq8HuUoyNJ-46" value="." style="shape=umlLifeline;participant=umlActor;perimeter=lifelinePerimeter;whiteSpace=wrap;html=1;container=1;collapsible=0;recursiveResize=0;verticalAlign=top;spacingTop=36;outlineConnect=0;fillColor=none;size=32;sketch=0;shadow=0;rounded=0;glass=0;" vertex="1" parent="1">
          <mxGeometry x="110" y="65" width="20" height="850" as="geometry" />
        </mxCell>
        <mxCell id="iKNJWcs5wsSq8HuUoyNJ-47" value="&lt;span style=&quot;color: rgb(0, 0, 0); font-family: Helvetica; font-size: 15px; font-style: normal; font-variant-ligatures: normal; font-variant-caps: normal; font-weight: 400; letter-spacing: normal; orphans: 2; text-align: center; text-indent: 0px; text-transform: none; widows: 2; word-spacing: 0px; -webkit-text-stroke-width: 0px; background-color: rgb(248, 249, 250); text-decoration-thickness: initial; text-decoration-style: initial; text-decoration-color: initial; float: none; display: inline !important;&quot;&gt;Administrateur&lt;/span&gt;" style="text;whiteSpace=wrap;html=1;fontSize=15;" vertex="1" parent="1">
          <mxGeometry x="72" y="91" width="105" height="36" as="geometry" />
        </mxCell>
        <mxCell id="iKNJWcs5wsSq8HuUoyNJ-48" value=":TimeAndMaterial&lt;br&gt;Service" style="shape=umlLifeline;perimeter=lifelinePerimeter;whiteSpace=wrap;html=1;container=1;collapsible=0;recursiveResize=0;outlineConnect=0;rounded=0;shadow=0;glass=0;sketch=0;fillColor=none;fontSize=15;fontColor=#CC6600;strokeColor=#CC6600;" vertex="1" parent="1">
          <mxGeometry x="899" y="65" width="130" height="850" as="geometry" />
        </mxCell>
        <mxCell id="iKNJWcs5wsSq8HuUoyNJ-49" value="" style="html=1;points=[];perimeter=orthogonalPerimeter;rounded=0;shadow=0;glass=0;sketch=0;fontSize=15;fillColor=none;" vertex="1" parent="iKNJWcs5wsSq8HuUoyNJ-48">
          <mxGeometry x="60" y="477" width="10" height="284" as="geometry" />
        </mxCell>
        <mxCell id="iKNJWcs5wsSq8HuUoyNJ-50" value="" style="shape=umlLifeline;participant=umlEntity;perimeter=lifelinePerimeter;whiteSpace=wrap;html=1;container=1;collapsible=0;recursiveResize=0;verticalAlign=top;spacingTop=36;outlineConnect=0;rounded=0;shadow=0;glass=0;sketch=0;fontSize=15;fillColor=none;fontColor=#CC6600;strokeColor=#CC6600;" vertex="1" parent="1">
          <mxGeometry x="1091" y="65" width="65" height="850" as="geometry" />
        </mxCell>
        <mxCell id="iKNJWcs5wsSq8HuUoyNJ-51" value="" style="html=1;points=[];perimeter=orthogonalPerimeter;rounded=0;shadow=0;glass=0;sketch=0;fontSize=15;fillColor=none;" vertex="1" parent="iKNJWcs5wsSq8HuUoyNJ-50">
          <mxGeometry x="27.5" y="501" width="10" height="235" as="geometry" />
        </mxCell>
        <mxCell id="iKNJWcs5wsSq8HuUoyNJ-52" value="&lt;span style=&quot;font-family: Helvetica; font-size: 15px; font-style: normal; font-variant-ligatures: normal; font-variant-caps: normal; font-weight: 400; letter-spacing: normal; orphans: 2; text-indent: 0px; text-transform: none; widows: 2; word-spacing: 0px; -webkit-text-stroke-width: 0px; background-color: rgb(248, 249, 250); text-decoration-thickness: initial; text-decoration-style: initial; text-decoration-color: initial; float: none; display: inline !important;&quot;&gt;Base de donnÃ©e&lt;br&gt;Livraison&lt;br&gt;&lt;/span&gt;" style="text;whiteSpace=wrap;html=1;fontSize=15;align=center;fillColor=default;fontColor=#CC6600;" vertex="1" parent="iKNJWcs5wsSq8HuUoyNJ-50">
          <mxGeometry x="-21" y="47" width="119" height="48" as="geometry" />
        </mxCell>
        <mxCell id="iKNJWcs5wsSq8HuUoyNJ-53" value="" style="shape=umlLifeline;participant=umlBoundary;perimeter=lifelinePerimeter;whiteSpace=wrap;html=1;container=1;collapsible=0;recursiveResize=0;verticalAlign=top;spacingTop=36;outlineConnect=0;rounded=0;shadow=0;glass=0;sketch=0;fontSize=15;fillColor=none;fontColor=#CC6600;strokeColor=#CC6600;" vertex="1" parent="1">
          <mxGeometry x="273" y="65" width="65" height="850" as="geometry" />
        </mxCell>
        <mxCell id="iKNJWcs5wsSq8HuUoyNJ-54" value="&lt;span style=&quot;font-family: Helvetica; font-size: 15px; font-style: normal; font-variant-ligatures: normal; font-variant-caps: normal; font-weight: 400; letter-spacing: normal; orphans: 2; text-indent: 0px; text-transform: none; widows: 2; word-spacing: 0px; -webkit-text-stroke-width: 0px; background-color: rgb(248, 249, 250); text-decoration-thickness: initial; text-decoration-style: initial; text-decoration-color: initial; float: none; display: inline !important;&quot;&gt;Interface IHM&lt;/span&gt;&lt;br style=&quot;font-family: Helvetica; font-size: 15px; font-style: normal; font-variant-ligatures: normal; font-variant-caps: normal; font-weight: 400; letter-spacing: normal; orphans: 2; text-indent: 0px; text-transform: none; widows: 2; word-spacing: 0px; -webkit-text-stroke-width: 0px; background-color: rgb(248, 249, 250); text-decoration-thickness: initial; text-decoration-style: initial; text-decoration-color: initial;&quot;&gt;&lt;span style=&quot;font-family: Helvetica; font-size: 15px; font-style: normal; font-variant-ligatures: normal; font-variant-caps: normal; font-weight: 400; letter-spacing: normal; orphans: 2; text-indent: 0px; text-transform: none; widows: 2; word-spacing: 0px; -webkit-text-stroke-width: 0px; background-color: rgb(248, 249, 250); text-decoration-thickness: initial; text-decoration-style: initial; text-decoration-color: initial; float: none; display: inline !important;&quot;&gt;TempsEtMateriel&lt;/span&gt;" style="text;whiteSpace=wrap;html=1;fontSize=15;align=center;fillColor=default;fontColor=#CC6600;" vertex="1" parent="iKNJWcs5wsSq8HuUoyNJ-53">
          <mxGeometry x="-24" y="44" width="122" height="45" as="geometry" />
        </mxCell>
        <mxCell id="iKNJWcs5wsSq8HuUoyNJ-55" value="" style="html=1;points=[];perimeter=orthogonalPerimeter;rounded=0;shadow=0;glass=0;sketch=0;fontSize=15;fillColor=none;" vertex="1" parent="iKNJWcs5wsSq8HuUoyNJ-53">
          <mxGeometry x="27.5" y="238" width="10" height="580" as="geometry" />
        </mxCell>
        <mxCell id="iKNJWcs5wsSq8HuUoyNJ-99" value="valider&lt;br&gt;formulaire" style="edgeStyle=orthogonalEdgeStyle;html=1;align=left;spacingLeft=2;endArrow=block;rounded=0;fontSize=15;" edge="1" parent="iKNJWcs5wsSq8HuUoyNJ-53" source="iKNJWcs5wsSq8HuUoyNJ-55" target="iKNJWcs5wsSq8HuUoyNJ-55">
          <mxGeometry relative="1" as="geometry">
            <mxPoint x="36" y="401" as="sourcePoint" />
            <Array as="points">
              <mxPoint x="67" y="401" />
              <mxPoint x="67" y="429" />
            </Array>
            <mxPoint x="36" y="429" as="targetPoint" />
          </mxGeometry>
        </mxCell>
        <mxCell id="iKNJWcs5wsSq8HuUoyNJ-63" value="" style="edgeStyle=elbowEdgeStyle;fontSize=12;html=1;endArrow=blockThin;endFill=1;rounded=0;" edge="1" parent="1" target="iKNJWcs5wsSq8HuUoyNJ-55">
          <mxGeometry width="160" relative="1" as="geometry">
            <mxPoint x="119.32352941176464" y="332" as="sourcePoint" />
            <mxPoint x="788" y="414" as="targetPoint" />
            <Array as="points">
              <mxPoint x="190" y="332" />
              <mxPoint x="171" y="305" />
            </Array>
          </mxGeometry>
        </mxCell>
        <mxCell id="iKNJWcs5wsSq8HuUoyNJ-64" value="demander ajouter projet" style="edgeLabel;html=1;align=center;verticalAlign=middle;resizable=0;points=[];fontSize=15;" vertex="1" connectable="0" parent="iKNJWcs5wsSq8HuUoyNJ-63">
          <mxGeometry x="-0.3952" relative="1" as="geometry">
            <mxPoint x="30" y="-12" as="offset" />
          </mxGeometry>
        </mxCell>
        <mxCell id="iKNJWcs5wsSq8HuUoyNJ-67" value="" style="edgeStyle=elbowEdgeStyle;fontSize=12;html=1;endArrow=blockThin;endFill=1;rounded=0;" edge="1" parent="1" source="iKNJWcs5wsSq8HuUoyNJ-45" target="iKNJWcs5wsSq8HuUoyNJ-49">
          <mxGeometry width="160" relative="1" as="geometry">
            <mxPoint x="394" y="399" as="sourcePoint" />
            <mxPoint x="554" y="399" as="targetPoint" />
            <Array as="points">
              <mxPoint x="778" y="561" />
              <mxPoint x="753" y="352" />
              <mxPoint x="602" y="337" />
              <mxPoint x="527" y="366" />
            </Array>
          </mxGeometry>
        </mxCell>
        <mxCell id="iKNJWcs5wsSq8HuUoyNJ-68" value="createTimeAndMaterialActivity(deal)" style="edgeLabel;html=1;align=center;verticalAlign=middle;resizable=0;points=[];fontSize=15;" vertex="1" connectable="0" parent="iKNJWcs5wsSq8HuUoyNJ-67">
          <mxGeometry x="0.1239" relative="1" as="geometry">
            <mxPoint x="-14" y="-11" as="offset" />
          </mxGeometry>
        </mxCell>
        <mxCell id="iKNJWcs5wsSq8HuUoyNJ-69" value="" style="edgeStyle=elbowEdgeStyle;fontSize=12;html=1;endArrow=blockThin;endFill=1;rounded=0;" edge="1" parent="1" source="iKNJWcs5wsSq8HuUoyNJ-49" target="iKNJWcs5wsSq8HuUoyNJ-51">
          <mxGeometry width="160" relative="1" as="geometry">
            <mxPoint x="474" y="399" as="sourcePoint" />
            <mxPoint x="634" y="399" as="targetPoint" />
            <Array as="points">
              <mxPoint x="1060" y="575" />
              <mxPoint x="969" y="586" />
              <mxPoint x="766" y="362" />
            </Array>
          </mxGeometry>
        </mxCell>
        <mxCell id="iKNJWcs5wsSq8HuUoyNJ-70" value="save(deal)" style="edgeLabel;html=1;align=center;verticalAlign=middle;resizable=0;points=[];fontSize=15;" vertex="1" connectable="0" parent="iKNJWcs5wsSq8HuUoyNJ-69">
          <mxGeometry x="-0.3561" y="2" relative="1" as="geometry">
            <mxPoint x="23" y="-9" as="offset" />
          </mxGeometry>
        </mxCell>
        <mxCell id="iKNJWcs5wsSq8HuUoyNJ-71" value="&lt;font color=&quot;#009900&quot;&gt;projet&lt;/font&gt;" style="html=1;verticalAlign=bottom;endArrow=open;dashed=1;endSize=8;rounded=0;fontSize=15;strokeColor=#009900;" edge="1" parent="1" source="iKNJWcs5wsSq8HuUoyNJ-51" target="iKNJWcs5wsSq8HuUoyNJ-49">
          <mxGeometry relative="1" as="geometry">
            <mxPoint x="806" y="386" as="sourcePoint" />
            <mxPoint x="668" y="386" as="targetPoint" />
            <Array as="points">
              <mxPoint x="1025" y="614" />
            </Array>
          </mxGeometry>
        </mxCell>
        <mxCell id="iKNJWcs5wsSq8HuUoyNJ-72" value="&lt;font color=&quot;#009900&quot;&gt;projet&lt;/font&gt;" style="html=1;verticalAlign=bottom;endArrow=open;dashed=1;endSize=8;rounded=0;fontSize=15;strokeColor=#009900;" edge="1" parent="1" source="iKNJWcs5wsSq8HuUoyNJ-49" target="iKNJWcs5wsSq8HuUoyNJ-45">
          <mxGeometry relative="1" as="geometry">
            <mxPoint x="658" y="391" as="sourcePoint" />
            <mxPoint x="477" y="391" as="targetPoint" />
            <Array as="points">
              <mxPoint x="895" y="633" />
            </Array>
          </mxGeometry>
        </mxCell>
        <mxCell id="iKNJWcs5wsSq8HuUoyNJ-85" value="Diagramme&amp;nbsp; de sÃ©quence&amp;nbsp; ajouter projet TempsEtMateriel" style="shape=umlFrame;whiteSpace=wrap;html=1;rounded=0;shadow=0;glass=0;sketch=0;fontSize=15;fillColor=none;width=417;height=26;" vertex="1" parent="1">
          <mxGeometry x="10" y="30" width="1180" height="904" as="geometry" />
        </mxCell>
        <mxCell id="iKNJWcs5wsSq8HuUoyNJ-86" value=":Serveur d&#39;application&lt;br&gt;TimeAndMaterial" style="shape=umlLifeline;perimeter=lifelinePerimeter;whiteSpace=wrap;html=1;container=1;collapsible=0;recursiveResize=0;outlineConnect=0;rounded=0;shadow=0;glass=0;sketch=0;fillColor=none;fontSize=15;fontColor=#CC6600;strokeColor=#CC6600;" vertex="1" parent="1">
          <mxGeometry x="422" y="65" width="160" height="850" as="geometry" />
        </mxCell>
        <mxCell id="iKNJWcs5wsSq8HuUoyNJ-87" value="" style="html=1;points=[];perimeter=orthogonalPerimeter;" vertex="1" parent="iKNJWcs5wsSq8HuUoyNJ-86">
          <mxGeometry x="73" y="260" width="10" height="66" as="geometry" />
        </mxCell>
        <mxCell id="iKNJWcs5wsSq8HuUoyNJ-100" value="" style="html=1;points=[];perimeter=orthogonalPerimeter;" vertex="1" parent="iKNJWcs5wsSq8HuUoyNJ-86">
          <mxGeometry x="73" y="462" width="10" height="337" as="geometry" />
        </mxCell>
        <mxCell id="iKNJWcs5wsSq8HuUoyNJ-89" value="" style="fontSize=12;html=1;endArrow=blockThin;endFill=1;rounded=0;" edge="1" parent="1" source="iKNJWcs5wsSq8HuUoyNJ-55" target="iKNJWcs5wsSq8HuUoyNJ-87">
          <mxGeometry width="160" relative="1" as="geometry">
            <mxPoint x="294" y="351" as="sourcePoint" />
            <mxPoint x="599" y="461" as="targetPoint" />
            <Array as="points">
              <mxPoint x="382" y="333" />
            </Array>
          </mxGeometry>
        </mxCell>
        <mxCell id="iKNJWcs5wsSq8HuUoyNJ-90" value="formulaire()" style="edgeLabel;html=1;align=center;verticalAlign=middle;resizable=0;points=[];fontSize=15;" vertex="1" connectable="0" parent="iKNJWcs5wsSq8HuUoyNJ-89">
          <mxGeometry x="-0.0064" y="-3" relative="1" as="geometry">
            <mxPoint x="-3" y="-11" as="offset" />
          </mxGeometry>
        </mxCell>
        <mxCell id="iKNJWcs5wsSq8HuUoyNJ-92" value="&lt;font style=&quot;font-size: 15px;&quot;&gt;formulaire&lt;/font&gt;" style="html=1;verticalAlign=bottom;endArrow=open;dashed=1;endSize=8;rounded=0;" edge="1" parent="1" source="iKNJWcs5wsSq8HuUoyNJ-87" target="iKNJWcs5wsSq8HuUoyNJ-55">
          <mxGeometry relative="1" as="geometry">
            <mxPoint x="438" y="418" as="sourcePoint" />
            <mxPoint x="358" y="418" as="targetPoint" />
            <Array as="points">
              <mxPoint x="411" y="375" />
            </Array>
          </mxGeometry>
        </mxCell>
        <mxCell id="iKNJWcs5wsSq8HuUoyNJ-93" value="&lt;font style=&quot;font-size: 15px;&quot;&gt;formulaire&lt;/font&gt;" style="html=1;verticalAlign=bottom;endArrow=open;dashed=1;endSize=8;rounded=0;" edge="1" parent="1">
          <mxGeometry relative="1" as="geometry">
            <mxPoint x="300.5" y="393.0000000000001" as="sourcePoint" />
            <mxPoint x="119.66666666666674" y="393.0000000000001" as="targetPoint" />
            <Array as="points">
              <mxPoint x="253" y="393" />
            </Array>
          </mxGeometry>
        </mxCell>
        <mxCell id="iKNJWcs5wsSq8HuUoyNJ-94" value="" style="fontSize=12;html=1;endArrow=blockThin;endFill=1;rounded=0;" edge="1" parent="1" target="iKNJWcs5wsSq8HuUoyNJ-55">
          <mxGeometry width="160" relative="1" as="geometry">
            <mxPoint x="119.32352941176464" y="441" as="sourcePoint" />
            <mxPoint x="498" y="460" as="targetPoint" />
            <Array as="points">
              <mxPoint x="257" y="441" />
            </Array>
          </mxGeometry>
        </mxCell>
        <mxCell id="iKNJWcs5wsSq8HuUoyNJ-96" value="remplir formulaire" style="edgeLabel;html=1;align=center;verticalAlign=middle;resizable=0;points=[];fontSize=15;" vertex="1" connectable="0" parent="iKNJWcs5wsSq8HuUoyNJ-94">
          <mxGeometry x="0.1281" y="-4" relative="1" as="geometry">
            <mxPoint x="-3" y="-14" as="offset" />
          </mxGeometry>
        </mxCell>
        <mxCell id="iKNJWcs5wsSq8HuUoyNJ-98" value="&lt;font style=&quot;font-size: 15px;&quot;&gt;alt: formulaire valide&lt;/font&gt;" style="shape=umlFrame;whiteSpace=wrap;html=1;width=162;height=22;" vertex="1" parent="1">
          <mxGeometry x="59" y="401" width="362" height="103" as="geometry" />
        </mxCell>
        <mxCell id="iKNJWcs5wsSq8HuUoyNJ-101" value="" style="fontSize=12;html=1;endArrow=blockThin;endFill=1;rounded=0;" edge="1" parent="1" source="iKNJWcs5wsSq8HuUoyNJ-55" target="iKNJWcs5wsSq8HuUoyNJ-100">
          <mxGeometry width="160" relative="1" as="geometry">
            <mxPoint x="462" y="440" as="sourcePoint" />
            <mxPoint x="622" y="440" as="targetPoint" />
            <Array as="points">
              <mxPoint x="389" y="537" />
            </Array>
          </mxGeometry>
        </mxCell>
        <mxCell id="iKNJWcs5wsSq8HuUoyNJ-102" value="save()" style="edgeLabel;html=1;align=center;verticalAlign=middle;resizable=0;points=[];labelBackgroundColor=none;fontSize=15;" vertex="1" connectable="0" parent="iKNJWcs5wsSq8HuUoyNJ-101">
          <mxGeometry x="-0.0806" y="1" relative="1" as="geometry">
            <mxPoint x="1" y="-7" as="offset" />
          </mxGeometry>
        </mxCell>
        <mxCell id="iKNJWcs5wsSq8HuUoyNJ-103" value="" style="fontSize=12;html=1;endArrow=blockThin;endFill=1;rounded=0;" edge="1" parent="1" source="iKNJWcs5wsSq8HuUoyNJ-100" target="iKNJWcs5wsSq8HuUoyNJ-45">
          <mxGeometry width="160" relative="1" as="geometry">
            <mxPoint x="518" y="384" as="sourcePoint" />
            <mxPoint x="678" y="384" as="targetPoint" />
            <Array as="points">
              <mxPoint x="525" y="546" />
            </Array>
          </mxGeometry>
        </mxCell>
        <mxCell id="iKNJWcs5wsSq8HuUoyNJ-104" value="&lt;span style=&quot;font-size: 15px;&quot;&gt;create(deal)&lt;/span&gt;" style="edgeLabel;html=1;align=center;verticalAlign=middle;resizable=0;points=[];labelBackgroundColor=none;fontSize=15;" vertex="1" connectable="0" parent="iKNJWcs5wsSq8HuUoyNJ-103">
          <mxGeometry x="0.25" relative="1" as="geometry">
            <mxPoint x="-23" y="-7" as="offset" />
          </mxGeometry>
        </mxCell>
        <mxCell id="iKNJWcs5wsSq8HuUoyNJ-105" value="&lt;font color=&quot;#009900&quot;&gt;projet, statut 200&lt;/font&gt;" style="html=1;verticalAlign=bottom;endArrow=open;dashed=1;endSize=8;rounded=0;fontSize=15;strokeColor=#009900;" edge="1" parent="1" source="iKNJWcs5wsSq8HuUoyNJ-45" target="iKNJWcs5wsSq8HuUoyNJ-100">
          <mxGeometry relative="1" as="geometry">
            <mxPoint x="661" y="633" as="sourcePoint" />
            <mxPoint x="409.9999999999998" y="633" as="targetPoint" />
            <Array as="points">
              <mxPoint x="633" y="661" />
            </Array>
          </mxGeometry>
        </mxCell>
        <mxCell id="iKNJWcs5wsSq8HuUoyNJ-106" value="&lt;font color=&quot;#009900&quot;&gt;Rediriger vers liste projets,&lt;br&gt;pop-up vert&lt;br&gt;&lt;/font&gt;" style="html=1;verticalAlign=bottom;endArrow=open;dashed=1;endSize=8;rounded=0;fontSize=15;strokeColor=#009900;" edge="1" parent="1" source="iKNJWcs5wsSq8HuUoyNJ-100" target="iKNJWcs5wsSq8HuUoyNJ-55">
          <mxGeometry x="-0.0136" y="-4" relative="1" as="geometry">
            <mxPoint x="673.9999999999998" y="636" as="sourcePoint" />
            <mxPoint x="507" y="636" as="targetPoint" />
            <Array as="points">
              <mxPoint x="459" y="684" />
            </Array>
            <mxPoint as="offset" />
          </mxGeometry>
        </mxCell>
        <mxCell id="iKNJWcs5wsSq8HuUoyNJ-112" value="&lt;font color=&quot;#000000&quot;&gt;liste projets&lt;/font&gt;" style="html=1;verticalAlign=bottom;endArrow=open;dashed=1;endSize=8;rounded=0;fontSize=15;fontColor=#009900;strokeColor=#000000;" edge="1" parent="1" source="iKNJWcs5wsSq8HuUoyNJ-55">
          <mxGeometry relative="1" as="geometry">
            <mxPoint x="606" y="670" as="sourcePoint" />
            <mxPoint x="119.32352941176464" y="711" as="targetPoint" />
            <Array as="points">
              <mxPoint x="274" y="711" />
            </Array>
          </mxGeometry>
        </mxCell>
        <mxCell id="iKNJWcs5wsSq8HuUoyNJ-107" value="" style="group" vertex="1" connectable="0" parent="1">
          <mxGeometry x="22" y="483" width="1126" height="413" as="geometry" />
        </mxCell>
        <mxCell id="iKNJWcs5wsSq8HuUoyNJ-109" value="&lt;div style=&quot;text-align: left; font-size: 15px;&quot;&gt;&lt;span style=&quot;background-color: initial; font-size: 15px;&quot;&gt;[Projet&amp;nbsp;&lt;/span&gt;&lt;span style=&quot;background-color: initial; text-align: right; font-size: 15px;&quot;&gt;Valide]&lt;/span&gt;&lt;/div&gt;" style="text;html=1;strokeColor=none;fillColor=none;align=center;verticalAlign=middle;whiteSpace=wrap;rounded=0;fontSize=15;fontColor=#009900;" vertex="1" parent="iKNJWcs5wsSq8HuUoyNJ-107">
          <mxGeometry x="77.00000000000001" y="107.74308046791917" width="179.48" height="24.354023395958876" as="geometry" />
        </mxCell>
        <mxCell id="iKNJWcs5wsSq8HuUoyNJ-110" value="[Projet Invalide]" style="text;html=1;strokeColor=none;fillColor=none;align=center;verticalAlign=middle;whiteSpace=wrap;rounded=0;fontSize=16;fontColor=#FF5521;" vertex="1" parent="iKNJWcs5wsSq8HuUoyNJ-107">
          <mxGeometry x="103.24000000000001" y="282.00179723502305" width="127" height="22.6036866359447" as="geometry" />
        </mxCell>
        <mxCell id="iKNJWcs5wsSq8HuUoyNJ-108" value="ALT" style="shape=umlFrame;whiteSpace=wrap;html=1;width=45;height=30;" vertex="1" parent="iKNJWcs5wsSq8HuUoyNJ-107">
          <mxGeometry x="19" y="110" width="1107" height="299" as="geometry" />
        </mxCell>
        <mxCell id="iKNJWcs5wsSq8HuUoyNJ-116" value="&lt;font color=&quot;#cc0000&quot;&gt;projet&lt;/font&gt;" style="html=1;verticalAlign=bottom;endArrow=open;dashed=1;endSize=8;rounded=0;fontSize=15;fontColor=#000000;strokeColor=#CC0000;" edge="1" parent="1" source="iKNJWcs5wsSq8HuUoyNJ-51" target="iKNJWcs5wsSq8HuUoyNJ-49">
          <mxGeometry relative="1" as="geometry">
            <mxPoint x="680" y="791" as="sourcePoint" />
            <mxPoint x="600" y="791" as="targetPoint" />
            <Array as="points">
              <mxPoint x="1038" y="781" />
            </Array>
          </mxGeometry>
        </mxCell>
        <mxCell id="iKNJWcs5wsSq8HuUoyNJ-117" value="&lt;font color=&quot;#cc0000&quot;&gt;projet&lt;/font&gt;" style="html=1;verticalAlign=bottom;endArrow=open;dashed=1;endSize=8;rounded=0;fontSize=15;fontColor=#000000;strokeColor=#CC0000;" edge="1" parent="1" source="iKNJWcs5wsSq8HuUoyNJ-49" target="iKNJWcs5wsSq8HuUoyNJ-45">
          <mxGeometry relative="1" as="geometry">
            <mxPoint x="915" y="821" as="sourcePoint" />
            <mxPoint x="744" y="821" as="targetPoint" />
            <Array as="points">
              <mxPoint x="879" y="809" />
            </Array>
          </mxGeometry>
        </mxCell>
        <mxCell id="iKNJWcs5wsSq8HuUoyNJ-118" value="&lt;font color=&quot;#cc0000&quot;&gt;projet, statut 500&lt;/font&gt;" style="html=1;verticalAlign=bottom;endArrow=open;dashed=1;endSize=8;rounded=0;fontSize=15;fontColor=#000000;strokeColor=#CC0000;" edge="1" parent="1" source="iKNJWcs5wsSq8HuUoyNJ-45" target="iKNJWcs5wsSq8HuUoyNJ-100">
          <mxGeometry relative="1" as="geometry">
            <mxPoint x="651" y="818" as="sourcePoint" />
            <mxPoint x="399.9999999999998" y="818" as="targetPoint" />
            <Array as="points">
              <mxPoint x="619" y="826" />
            </Array>
          </mxGeometry>
        </mxCell>
        <mxCell id="iKNJWcs5wsSq8HuUoyNJ-119" value="&lt;font color=&quot;#cc0000&quot;&gt;Rediriger vers liste projets,&lt;br&gt;pop-up rouge&lt;/font&gt;" style="html=1;verticalAlign=bottom;endArrow=open;dashed=1;endSize=8;rounded=0;fontSize=15;strokeColor=#CC0000;" edge="1" parent="1" source="iKNJWcs5wsSq8HuUoyNJ-100" target="iKNJWcs5wsSq8HuUoyNJ-55">
          <mxGeometry x="-0.0136" y="-4" relative="1" as="geometry">
            <mxPoint x="495" y="826" as="sourcePoint" />
            <mxPoint x="310.5" y="826" as="targetPoint" />
            <Array as="points">
              <mxPoint x="445" y="854" />
            </Array>
            <mxPoint as="offset" />
          </mxGeometry>
        </mxCell>
        <mxCell id="iKNJWcs5wsSq8HuUoyNJ-120" value="&lt;font color=&quot;#000000&quot;&gt;liste projets&lt;/font&gt;" style="html=1;verticalAlign=bottom;endArrow=open;dashed=1;endSize=8;rounded=0;fontSize=15;fontColor=#009900;strokeColor=#000000;" edge="1" parent="1" source="iKNJWcs5wsSq8HuUoyNJ-55">
          <mxGeometry relative="1" as="geometry">
            <mxPoint x="293.83" y="880" as="sourcePoint" />
            <mxPoint x="119.32352941176464" y="869" as="targetPoint" />
            <Array as="points">
              <mxPoint x="231" y="869" />
            </Array>
          </mxGeometry>
        </mxCell>
        <mxCell id="iKNJWcs5wsSq8HuUoyNJ-122" value="ref" style="shape=umlFrame;whiteSpace=wrap;html=1;labelBackgroundColor=none;fontSize=15;" vertex="1" parent="1">
          <mxGeometry x="39" y="187" width="1116" height="107" as="geometry" />
        </mxCell>
        <mxCell id="iKNJWcs5wsSq8HuUoyNJ-44" value=":TimeAndMaterial&lt;br&gt;Controler" style="shape=umlLifeline;perimeter=lifelinePerimeter;whiteSpace=wrap;html=1;container=1;collapsible=0;recursiveResize=0;outlineConnect=0;rounded=0;shadow=0;glass=0;sketch=0;fillColor=none;fontSize=15;fontColor=#CC6600;strokeColor=#CC6600;" vertex="1" parent="1">
          <mxGeometry x="604" y="65" width="201" height="850" as="geometry" />
        </mxCell>
        <mxCell id="iKNJWcs5wsSq8HuUoyNJ-45" value="" style="html=1;points=[];perimeter=orthogonalPerimeter;rounded=0;shadow=0;glass=0;sketch=0;fontSize=15;fillColor=none;" vertex="1" parent="iKNJWcs5wsSq8HuUoyNJ-44">
          <mxGeometry x="95.5" y="467" width="10" height="310" as="geometry" />
        </mxCell>
        <mxCell id="iKNJWcs5wsSq8HuUoyNJ-123" value="&amp;lt;&amp;lt;Authentification&amp;gt;&amp;gt;" style="text;html=1;strokeColor=none;fillColor=none;align=center;verticalAlign=middle;whiteSpace=wrap;rounded=0;labelBackgroundColor=none;fontSize=15;fontColor=#000000;" vertex="1" parent="1">
          <mxGeometry x="571" y="234" width="60" height="30" as="geometry" />
        </mxCell>
      </root>
    </mxGraphModel>
  </diagram>
</mxfile>
